<svg width="431" height="363" viewBox="0 0 431 363" fill="none" xmlns="http://www.w3.org/2000/svg">
<path d="M91.0199 201.889C74.9148 217.994 74.9148 244.106 91.0199 260.211C107.124 276.316 133.236 276.316 149.341 260.211L213.184 196.368L269.959 253.143L215.526 307.577L206.338 316.862L193.657 329.422C183.126 339.959 170.621 348.317 156.859 354.02C143.096 359.722 128.344 362.658 113.446 362.658C98.5492 362.658 83.7975 359.722 70.0345 354.02C56.2717 348.317 43.7672 339.959 33.2355 329.422C22.6989 318.891 14.3405 306.386 8.63789 292.623C2.9352 278.86 0 264.108 0 249.211C0 234.314 2.9352 219.562 8.63789 205.799C14.3405 192.036 22.6989 179.532 33.2355 169L192.846 9.38953C205.366 -3.12984 225.663 -3.12984 238.183 9.38953C250.702 21.9089 250.702 42.2068 238.183 54.7263L91.0199 201.889Z" fill="white" fill-opacity="0.1"/>
<path d="M237.375 316.136C233.707 319.805 233.707 325.753 237.375 329.421C258.649 350.694 287.501 362.645 317.586 362.645C335.154 362.645 352.302 358.57 367.765 350.944L285.167 268.345L237.375 316.136Z" fill="white" fill-opacity="0.1"/>
<path d="M423.421 289.982L271.488 138.049L319.155 90.3818L397.775 169.003C419.049 190.276 431 219.129 431 249.214C431 263.289 428.384 277.095 423.421 289.982Z" fill="white" fill-opacity="0.1"/>
</svg>
