<svg width="352" height="296" viewBox="0 0 352 296" fill="none" xmlns="http://www.w3.org/2000/svg">
<path d="M74.2878 164.776C61.1432 177.921 61.1432 199.232 74.2878 212.377C87.4318 225.521 108.744 225.521 121.888 212.377L173.995 160.27L220.333 206.608L175.906 251.035L168.407 258.614L158.058 268.865C149.462 277.464 139.256 284.286 128.024 288.941C116.791 293.595 104.751 295.991 92.5916 295.991C80.433 295.991 68.3931 293.595 57.1601 288.941C45.9273 284.286 35.7215 277.464 27.1259 268.865C18.5262 260.269 11.7043 250.064 7.05 238.831C2.39562 227.598 0 215.558 0 203.399C0 191.24 2.39562 179.2 7.05 167.968C11.7043 156.735 18.5262 146.529 27.1259 137.933L157.395 7.66346C167.614 -2.55449 184.18 -2.55449 194.398 7.66346C204.616 17.8814 204.616 34.448 194.398 44.666L74.2878 164.776Z" fill="#F2F2F4"/>
<path d="M193.738 258.022C190.745 261.016 190.745 265.87 193.738 268.865C211.101 286.227 234.65 295.981 259.204 295.981C273.543 295.981 287.538 292.655 300.159 286.43L232.744 219.016L193.738 258.022Z" fill="#F2F2F4"/>
<path d="M345.584 236.674L221.581 112.671L260.485 73.7666L324.653 137.935C342.016 155.297 351.77 178.846 351.77 203.401C351.77 214.889 349.635 226.156 345.584 236.674Z" fill="#F2F2F4"/>
</svg>
