<svg width="83" height="83" viewBox="0 0 83 83" fill="none" xmlns="http://www.w3.org/2000/svg">
<g style="mix-blend-mode:multiply">
<path d="M1.16529 52.1629L41.4151 41.4151L52.163 1.16531L1.16529 52.1629ZM70.8284 70.8283L41.3856 41.3855L70.8284 70.8283ZM79.3575 26.7811L55.9899 3.41352C54.965 2.39013 53.6884 1.65405 52.2889 1.28083C50.8893 0.906135 49.4157 0.906146 48.0161 1.28233L15.8867 10.0441C14.4856 10.4202 13.2075 11.1578 12.1827 12.1827C11.1578 13.2075 10.4203 14.4857 10.0441 15.8867L1.28235 48.0161C0.906168 49.4156 0.906112 50.8892 1.28081 52.2888C1.65403 53.6884 2.3901 54.9651 3.41349 55.9899L26.7811 79.3575C27.806 80.3809 29.0827 81.1155 30.4823 81.4902C31.8818 81.8649 33.3555 81.8649 34.755 81.4887L66.8844 72.727C68.2854 72.3508 69.5635 71.6133 70.5884 70.5884C71.6132 69.5635 72.3508 68.2854 72.727 66.8843L81.4888 34.755C81.865 33.3554 81.8649 31.8818 81.4902 30.4822C81.1155 29.0826 80.3809 27.806 79.3575 26.7811Z" stroke="#CDCDCD" stroke-linecap="round" stroke-linejoin="round"/>
</g>
</svg>
