<svg width="64" height="64" viewBox="0 0 64 64" fill="none" xmlns="http://www.w3.org/2000/svg">
<g clip-path="url(#clip0_754_11933)">
<path d="M32 -1.39876e-06C40.4869 -1.76974e-06 48.6263 3.37142 54.6274 9.37258C60.6286 15.3737 64 23.5131 64 32C64 40.4869 60.6286 48.6263 54.6274 54.6274C48.6263 60.6286 40.4869 64 32 64C23.5131 64 15.3737 60.6286 9.37258 54.6274C3.37142 48.6263 -1.02779e-06 40.4869 -1.39876e-06 32C-1.76974e-06 23.5131 3.37142 15.3737 9.37258 9.37258C15.3737 3.37142 23.5131 -1.02779e-06 32 -1.39876e-06ZM18 30C17.4696 30 16.9609 30.2107 16.5858 30.5858C16.2107 30.9609 16 31.4696 16 32C16 32.5304 16.2107 33.0391 16.5858 33.4142C16.9609 33.7893 17.4696 34 18 34L41.172 34L32.584 42.584C32.2085 42.9595 31.9975 43.4689 31.9975 44C31.9975 44.5311 32.2085 45.0405 32.584 45.416C32.9595 45.7915 33.4689 46.0025 34 46.0025C34.5311 46.0025 35.0405 45.7915 35.416 45.416L47.416 33.416C47.6023 33.2302 47.75 33.0095 47.8508 32.7665C47.9517 32.5236 48.0036 32.2631 48.0036 32C48.0036 31.7369 47.9517 31.4764 47.8508 31.2335C47.75 30.9905 47.6023 30.7698 47.416 30.584L35.416 18.584C35.0405 18.2085 34.5311 17.9975 34 17.9975C33.4689 17.9975 32.9595 18.2085 32.584 18.584C32.2085 18.9595 31.9975 19.4689 31.9975 20C31.9975 20.5311 32.2085 21.0405 32.584 21.416L41.172 30L18 30Z" fill="#CCCCCC"/>
</g>
<defs>
<clipPath id="clip0_754_11933">
<rect width="64" height="64" fill="white" transform="translate(0 64) rotate(-90)"/>
</clipPath>
</defs>
</svg>
