<svg width="569" height="390" viewBox="0 0 569 390" fill="none" xmlns="http://www.w3.org/2000/svg">
<path d="M490.031 197.904L286.002 315.843C284.763 316.559 283.237 316.559 281.998 315.843L77.9689 197.904C75.3095 196.367 75.3034 192.53 77.9578 190.984L281.987 72.1722C283.231 71.4477 284.769 71.4477 286.013 72.1722L490.042 190.984C492.697 192.53 492.69 196.367 490.031 197.904Z" stroke="#CCCCCC"/>
<path d="M1.29172 214.298L72.3291 195.329L91.2981 124.292L1.29172 214.298ZM124.241 247.241L72.2769 195.277L124.241 247.241ZM139.294 169.501L98.0523 128.26C96.2435 126.453 93.9904 125.154 91.5203 124.496C89.0502 123.834 86.4494 123.834 83.9792 124.498L27.2737 139.962C24.801 140.626 22.5452 141.928 20.7364 143.736C18.9276 145.545 17.626 147.801 16.9621 150.274L1.49832 206.979C0.834395 209.449 0.834297 212.05 1.49561 214.52C2.15431 216.99 3.45341 219.244 5.2596 221.052L46.5014 262.294C48.3102 264.1 50.5634 265.397 53.0336 266.058C55.5037 266.719 58.1045 266.719 60.5746 266.056L117.28 250.592C119.753 249.928 122.008 248.626 123.817 246.817C125.626 245.009 126.928 242.753 127.592 240.28L143.056 183.575C143.719 181.104 143.719 178.504 143.058 176.033C142.397 173.563 141.1 171.31 139.294 169.501Z" fill="#08375B" stroke="#CCCCCC" stroke-linecap="round" stroke-linejoin="round"/>
<path d="M213.292 336.298L284.329 317.329L303.298 246.292L213.292 336.298ZM336.241 369.241L284.277 317.277L336.241 369.241ZM351.294 291.501L310.052 250.26C308.243 248.453 305.99 247.154 303.52 246.496C301.05 245.834 298.449 245.834 295.979 246.498L239.274 261.962C236.801 262.626 234.545 263.928 232.736 265.736C230.928 267.545 229.626 269.801 228.962 272.274L213.498 328.979C212.834 331.449 212.834 334.05 213.496 336.52C214.154 338.99 215.453 341.244 217.26 343.052L258.501 384.294C260.31 386.1 262.563 387.397 265.034 388.058C267.504 388.719 270.105 388.719 272.575 388.056L329.28 372.592C331.753 371.928 334.008 370.626 335.817 368.817C337.626 367.009 338.928 364.753 339.592 362.28L355.056 305.575C355.719 303.104 355.719 300.504 355.058 298.033C354.397 295.563 353.1 293.31 351.294 291.501Z" fill="#08375B" stroke="#CCCCCC" stroke-linecap="round" stroke-linejoin="round"/>
<path d="M213.292 91.2981L284.329 72.3292L303.298 1.29176L213.292 91.2981ZM336.241 124.241L284.277 72.2769L336.241 124.241ZM351.294 46.5014L310.052 5.25964C308.243 3.45345 305.99 2.15435 303.52 1.49565C301.05 0.834337 298.449 0.834355 295.979 1.49828L239.274 16.962C236.801 17.6259 234.545 18.9276 232.736 20.7364C230.928 22.5452 229.626 24.801 228.962 27.2737L213.498 83.9792C212.834 86.4494 212.834 89.0501 213.496 91.5202C214.154 93.9904 215.453 96.2436 217.26 98.0524L258.501 139.294C260.31 141.1 262.563 142.397 265.034 143.058C267.504 143.719 270.105 143.719 272.575 143.056L329.28 127.592C331.753 126.928 334.008 125.626 335.817 123.817C337.626 122.009 338.928 119.753 339.592 117.28L355.056 60.5745C355.719 58.1044 355.719 55.5036 355.058 53.0335C354.397 50.5634 353.1 48.3102 351.294 46.5014Z" fill="#08375B" stroke="#CCCCCC" stroke-linecap="round" stroke-linejoin="round"/>
<path d="M425.292 214.298L496.329 195.329L515.298 124.292L425.292 214.298ZM548.241 247.241L496.277 195.277L548.241 247.241ZM563.294 169.501L522.052 128.26C520.243 126.453 517.99 125.154 515.52 124.496C513.05 123.834 510.449 123.834 507.979 124.498L451.274 139.962C448.801 140.626 446.545 141.928 444.736 143.736C442.928 145.545 441.626 147.801 440.962 150.274L425.498 206.979C424.834 209.449 424.834 212.05 425.496 214.52C426.154 216.99 427.453 219.244 429.26 221.052L470.501 262.294C472.31 264.1 474.563 265.397 477.034 266.058C479.504 266.719 482.105 266.719 484.575 266.056L541.28 250.592C543.753 249.928 546.008 248.626 547.817 246.817C549.626 245.009 550.928 242.753 551.592 240.28L567.056 183.575C567.719 181.104 567.719 178.504 567.058 176.033C566.397 173.563 565.1 171.31 563.294 169.501Z" fill="#08375B" stroke="#CCCCCC" stroke-linecap="round" stroke-linejoin="round"/>
</svg>
