<svg width="34" height="34" viewBox="0 0 34 34" fill="none" xmlns="http://www.w3.org/2000/svg">
<path d="M15.2497 14.5C18.9771 14.5 21.9994 11.4774 21.9994 7.75027C21.9994 4.02262 18.9768 1 15.2497 1C11.5214 1 8.5 4.02257 8.5 7.75027C8.5 11.4775 11.5217 14.5 15.2497 14.5ZM15.2497 2C18.4202 2 20.9994 4.57971 20.9994 7.75027C20.9994 10.9208 18.4199 13.5 15.2497 13.5C12.0795 13.5 9.5 10.9207 9.5 7.75027C9.5 4.57982 12.0795 2 15.2497 2Z" fill="#EB6677" stroke="#EB6677"/>
<path d="M32.5939 17.5873C32.5524 17.5815 28.3961 16.9614 26.3607 14.6599C26.273 14.5608 26.1469 14.5027 26.0137 14.5001C26.0083 14.4998 26.0029 14.4998 25.9976 14.4998C25.8724 14.4998 25.7478 14.5541 25.6596 14.6454C25.6496 14.6559 25.2447 15.0695 24.5632 15.5702C23.3203 14.6673 21.9085 13.9717 20.3987 13.5352C20.0793 13.82 19.7357 14.078 19.3723 14.3075C20.9094 14.6535 22.3739 15.2897 23.6649 16.1658C22.6255 16.7834 21.259 17.3546 19.7556 17.3546C19.6714 17.3546 19.5873 17.3528 19.5022 17.3491C19.4942 17.3486 19.4864 17.3484 19.4786 17.3484C19.229 17.3484 19.0201 17.5446 19.0078 17.7939C19.0029 17.895 18.8942 20.2991 19.646 23.0651C20.6565 26.7834 22.7549 29.3434 25.7145 30.4685C25.769 30.4893 25.8271 30.4998 25.8849 30.4998C25.9255 30.4998 25.9661 30.4946 26.0061 30.4842C26.0632 30.4692 27.175 30.1685 28.4998 29.1165V30.6464C28.4998 31.3926 27.8895 31.9997 27.1396 31.9997H3.3596C2.60983 31.9997 1.99977 31.3926 1.99977 30.6464V24.943C1.99977 21.9758 3.26897 19.2042 5.57411 17.139C7.12725 15.7475 9.06604 14.7714 11.1275 14.3073C10.7639 14.0781 10.4206 13.8198 10.1011 13.5352C5.01005 15.0082 1 19.3861 1 24.9426V30.646C1 31.9447 2.05645 32.9993 3.35982 32.9993H27.1392C28.4427 32.9993 29.4997 31.9447 29.4997 30.646V28.1998C31.0446 26.5754 32.8953 23.5031 32.9995 18.0592C33.0044 17.8235 32.8303 17.621 32.5937 17.5869L32.5939 17.5873ZM28.7539 27.5342C27.5307 28.811 26.3187 29.3203 25.9028 29.4674C23.3425 28.4275 21.5149 26.1272 20.6113 22.8023C20.0912 20.8887 20.0061 19.1708 19.9997 18.3498C22.8008 18.2516 25.0972 16.4922 25.9848 15.7094C27.8794 17.5213 30.8491 18.2648 31.9871 18.4934C31.7994 23.3579 30.138 26.0894 28.7541 27.5339L28.7539 27.5342Z" fill="#EB6677" stroke="#EB6677"/>
<path d="M23.3412 21.9136C23.139 21.7249 22.8227 21.7361 22.6346 21.9377C22.4462 22.1397 22.4569 22.456 22.6587 22.6443L24.7692 24.6153C24.8654 24.7053 24.9879 24.7501 25.1105 24.7501C25.2301 24.7501 25.3498 24.7075 25.4448 24.6218L29.3343 21.1218C29.5395 20.9372 29.5562 20.6209 29.3716 20.4156C29.1868 20.2102 28.8707 20.1937 28.6654 20.3783L25.1167 23.5721L23.3412 21.9136Z" fill="#EB6677" stroke="#EB6677"/>
</svg>
