<svg width="144" height="24" viewBox="0 0 144 24" fill="none" xmlns="http://www.w3.org/2000/svg">
<g clip-path="url(#clip0_932_1288)">
<path d="M46.1096 7.89665C45.9508 7.71129 45.7388 7.53253 45.474 7.36037C45.2092 7.18825 44.9112 7.03597 44.58 6.90357C44.2492 6.75789 43.8852 6.64537 43.4876 6.56589C43.1036 6.47321 42.7 6.42689 42.276 6.42689C41.1904 6.42689 40.3892 6.63213 39.8729 7.04261C39.3565 7.45309 39.0983 8.01585 39.0983 8.73089C39.0983 9.23405 39.2307 9.63129 39.4956 9.92261C39.7604 10.2139 40.164 10.4523 40.7072 10.6377C41.2632 10.823 41.9652 11.015 42.8124 11.2136C43.7924 11.4255 44.6396 11.6837 45.3548 11.9883C46.07 12.2928 46.6192 12.7033 47.0032 13.2197C47.3872 13.7229 47.5792 14.3982 47.5792 15.2456C47.5792 15.9209 47.4468 16.5102 47.182 17.0134C46.9304 17.5033 46.5732 17.9138 46.1096 18.2448C45.646 18.5626 45.1032 18.8009 44.4808 18.9599C43.8584 19.1055 43.1832 19.1783 42.4548 19.1783C41.74 19.1783 41.038 19.1055 40.3496 18.9599C39.6743 18.8009 39.0321 18.5759 38.423 18.2845C37.8139 17.9932 37.2445 17.6291 36.7148 17.1921L37.5689 15.6826C37.7808 15.9077 38.0522 16.1328 38.3833 16.3579C38.7276 16.5698 39.1116 16.7684 39.5353 16.9538C39.9722 17.1391 40.4424 17.2914 40.9456 17.4106C41.4488 17.5165 41.9652 17.5695 42.4948 17.5695C43.5012 17.5695 44.2824 17.3907 44.8384 17.0332C45.3944 16.6625 45.6728 16.1262 45.6728 15.4244C45.6728 14.8947 45.5136 14.471 45.196 14.1532C44.8912 13.8354 44.4344 13.5706 43.8256 13.3587C43.2164 13.1469 42.4748 12.935 41.6008 12.7231C40.6476 12.4848 39.8464 12.2266 39.1976 11.9485C38.5488 11.6572 38.0588 11.2799 37.7278 10.8164C37.41 10.3529 37.2511 9.75045 37.2511 9.00893C37.2511 8.10853 37.4696 7.34713 37.9066 6.72481C38.3436 6.10245 38.946 5.63237 39.714 5.31461C40.482 4.99681 41.3492 4.83789 42.316 4.83789C42.9516 4.83789 43.5408 4.90413 44.0836 5.03653C44.6396 5.16893 45.156 5.35433 45.6328 5.59265C46.1096 5.83101 46.5464 6.11569 46.9436 6.44673L46.1096 7.89665Z" fill="white"/>
<path d="M55.2335 19.2375C54.3863 19.2375 53.6315 19.0257 52.9695 18.602C52.3071 18.1783 51.7843 17.642 51.4003 16.9931V23.2695H49.6523V8.67095H51.2015V10.6174C51.6119 9.98183 52.1483 9.47203 52.8103 9.08803C53.4727 8.69079 54.1943 8.49219 54.9755 8.49219C55.6903 8.49219 56.3459 8.63783 56.9419 8.92915C57.5375 9.22047 58.0539 9.61771 58.4911 10.1209C58.9279 10.624 59.2655 11.2 59.5039 11.8489C59.7555 12.4845 59.8815 13.1531 59.8815 13.8549C59.8815 14.8348 59.6827 15.7352 59.2856 16.5562C58.9015 17.3771 58.3587 18.0326 57.6567 18.5225C56.9551 18.9992 56.1471 19.2375 55.2335 19.2375ZM54.6975 17.728C55.2139 17.728 55.6771 17.6221 56.0875 17.4103C56.5115 17.1851 56.8691 16.8938 57.1603 16.5363C57.4647 16.1655 57.6967 15.7485 57.8555 15.285C58.0143 14.8215 58.0939 14.3449 58.0939 13.8549C58.0939 13.3385 58.0011 12.8486 57.8155 12.3851C57.6435 11.9217 57.3919 11.5112 57.0611 11.1537C56.7431 10.7962 56.3659 10.5181 55.9287 10.3195C55.5051 10.1076 55.0415 10.0017 54.5383 10.0017C54.2207 10.0017 53.8895 10.0613 53.5455 10.1805C53.2143 10.2996 52.8967 10.4718 52.5919 10.6969C52.2875 10.9087 52.0291 11.1537 51.8175 11.4318C51.6055 11.7098 51.4663 12.0078 51.4003 12.3255V15.285C51.5987 15.7352 51.8635 16.1457 52.1947 16.5165C52.5259 16.8872 52.9099 17.1851 53.3467 17.4103C53.7835 17.6221 54.2339 17.728 54.6975 17.728Z" fill="white"/>
<path d="M61.2109 16.0398C61.2109 15.3777 61.3961 14.8083 61.7669 14.3316C62.1509 13.8417 62.6741 13.4643 63.3361 13.1995C63.9981 12.9347 64.7661 12.8023 65.6401 12.8023C66.1037 12.8023 66.5933 12.842 67.1097 12.9214C67.6261 12.9876 68.0829 13.0935 68.4805 13.2392V12.4845C68.4805 11.69 68.2421 11.0676 67.7653 10.6174C67.2885 10.154 66.6133 9.92227 65.7393 9.92227C65.1701 9.92227 64.6205 10.0282 64.0909 10.24C63.5745 10.4387 63.0249 10.73 62.4421 11.114L61.8065 9.88255C62.4821 9.41907 63.1573 9.07479 63.8325 8.84971C64.5081 8.61135 65.2097 8.49219 65.9381 8.49219C67.2621 8.49219 68.3081 8.86295 69.0761 9.60447C69.8441 10.3327 70.2281 11.3523 70.2281 12.6632V17.0527C70.2281 17.2646 70.2681 17.4235 70.3473 17.5294C70.4401 17.6221 70.5857 17.6751 70.7845 17.6883V19.0389C70.6121 19.0654 70.4601 19.0853 70.3277 19.0985C70.2085 19.1118 70.1089 19.1184 70.0297 19.1184C69.6189 19.1184 69.3081 19.0058 69.0961 18.7807C68.8973 18.5556 68.7849 18.3173 68.7585 18.0657L68.7185 17.4103C68.2685 17.9929 67.6793 18.4431 66.9509 18.7609C66.2225 19.0787 65.5009 19.2375 64.7861 19.2375C64.0973 19.2375 63.4817 19.0985 62.9389 18.8205C62.3961 18.5291 61.9721 18.1451 61.6677 17.6685C61.3629 17.1785 61.2109 16.6356 61.2109 16.0398ZM67.9641 16.7747C68.1229 16.5893 68.2485 16.4039 68.3413 16.2185C68.4341 16.0199 68.4805 15.8544 68.4805 15.722V14.4309C68.0697 14.272 67.6397 14.1529 67.1893 14.0734C66.7389 13.9807 66.2957 13.9344 65.8585 13.9344C64.9713 13.9344 64.2497 14.1131 63.6937 14.4707C63.1505 14.8149 62.8793 15.2916 62.8793 15.9007C62.8793 16.2318 62.9653 16.5562 63.1373 16.874C63.3229 17.1785 63.5877 17.4301 63.9321 17.6287C64.2893 17.8273 64.7265 17.9267 65.2429 17.9267C65.7857 17.9267 66.3021 17.8207 66.7921 17.6089C67.2821 17.3838 67.6725 17.1057 67.9641 16.7747Z" fill="white"/>
<path d="M72.3477 13.8752C72.3477 12.8954 72.5465 12.0016 72.9437 11.1938C73.3541 10.3729 73.9101 9.71744 74.6121 9.22748C75.3269 8.73756 76.1413 8.4926 77.0549 8.4926C77.8893 8.4926 78.6373 8.71108 79.2993 9.14804C79.9613 9.585 80.4781 10.1147 80.8485 10.737V4.54004H82.5965V17.0532C82.5965 17.265 82.6361 17.4239 82.7157 17.5298C82.8085 17.6225 82.9541 17.6755 83.1525 17.6887V19.0394C82.8217 19.0923 82.5633 19.1188 82.3781 19.1188C82.0337 19.1188 81.7293 18.9996 81.4645 18.7613C81.2129 18.5229 81.0869 18.2581 81.0869 17.9668V17.0929C80.6765 17.755 80.1269 18.278 79.4385 18.662C78.7501 19.046 78.0349 19.238 77.2933 19.238C76.5785 19.238 75.9161 19.099 75.3073 18.8209C74.7113 18.5296 74.1881 18.1323 73.7381 17.6292C73.3009 17.126 72.9569 16.5566 72.7053 15.921C72.4669 15.2722 72.3477 14.5902 72.3477 13.8752ZM80.8485 15.4046V12.4253C80.6897 11.9751 80.4317 11.5712 80.0741 11.2137C79.7165 10.843 79.3125 10.5516 78.8625 10.3398C78.4253 10.1147 77.9885 10.0021 77.5517 10.0021C77.0353 10.0021 76.5649 10.1147 76.1413 10.3398C75.7309 10.5516 75.3733 10.843 75.0689 11.2137C74.7773 11.5712 74.5525 11.9817 74.3933 12.4452C74.2345 12.9086 74.1553 13.3919 74.1553 13.8951C74.1553 14.4115 74.2413 14.9014 74.4133 15.3649C74.5989 15.8283 74.8505 16.2388 75.1681 16.5963C75.4993 16.9538 75.8765 17.2319 76.3001 17.4305C76.7373 17.6292 77.2073 17.7284 77.7105 17.7284C78.0281 17.7284 78.3525 17.6689 78.6837 17.5497C79.0281 17.4305 79.3525 17.265 79.6569 17.0532C79.9613 16.8413 80.2197 16.5963 80.4317 16.3182C80.6433 16.027 80.7825 15.7224 80.8485 15.4046Z" fill="white"/>
<path d="M90.1035 19.2375C89.3223 19.2375 88.6071 19.0985 87.9583 18.8205C87.3227 18.5291 86.7667 18.1385 86.2899 17.6486C85.8267 17.1454 85.4623 16.5694 85.1975 15.9206C84.9459 15.2718 84.8203 14.5832 84.8203 13.8549C84.8203 12.8751 85.0455 11.9813 85.4955 11.1735C85.9459 10.3658 86.5679 9.71703 87.3627 9.22707C88.1703 8.73715 89.0907 8.49219 90.1235 8.49219C91.1695 8.49219 92.0763 8.74379 92.8443 9.24695C93.6259 9.73687 94.2283 10.3857 94.6519 11.1934C95.0891 11.9879 95.3075 12.8486 95.3075 13.7755C95.3075 13.9079 95.3007 14.0403 95.2875 14.1727C95.2875 14.2919 95.2811 14.3846 95.2675 14.4508H86.6675C86.7203 15.1261 86.9059 15.7286 87.2235 16.2583C87.5547 16.7747 87.9783 17.1851 88.4947 17.4897C89.0111 17.781 89.5671 17.9267 90.1631 17.9267C90.7987 17.9267 91.3947 17.7678 91.9507 17.45C92.5199 17.1322 92.9107 16.7151 93.1227 16.1987L94.6319 16.6158C94.4071 17.1189 94.0695 17.5691 93.6191 17.9664C93.1823 18.3636 92.6591 18.6748 92.0499 18.8999C91.4543 19.125 90.8055 19.2375 90.1035 19.2375ZM86.6079 13.2392H93.6787C93.6259 12.5639 93.4339 11.968 93.1027 11.4516C92.7715 10.9352 92.3479 10.5313 91.8315 10.24C91.3151 9.94875 90.7459 9.80307 90.1235 9.80307C89.5143 9.80307 88.9515 9.94875 88.4351 10.24C87.9187 10.5313 87.4951 10.9352 87.1639 11.4516C86.8463 11.968 86.6607 12.5639 86.6079 13.2392Z" fill="white"/>
<path d="M112.122 6.52646H107.255V19.0396H105.468V6.52646H100.602V4.9375H112.122V6.52646Z" fill="white"/>
<path d="M116.252 19.2375C115.471 19.2375 114.756 19.0985 114.107 18.8205C113.472 18.5291 112.915 18.1385 112.439 17.6486C111.975 17.1454 111.611 16.5694 111.346 15.9206C111.095 15.2718 110.969 14.5832 110.969 13.8549C110.969 12.8751 111.194 11.9813 111.644 11.1735C112.094 10.3658 112.717 9.71703 113.511 9.22707C114.319 8.73715 115.239 8.49219 116.272 8.49219C117.318 8.49219 118.225 8.74379 118.993 9.24695C119.774 9.73687 120.377 10.3857 120.8 11.1934C121.238 11.9879 121.456 12.8486 121.456 13.7755C121.456 13.9079 121.45 14.0403 121.436 14.1727C121.436 14.2919 121.43 14.3846 121.416 14.4508H112.816C112.869 15.1261 113.054 15.7286 113.372 16.2583C113.703 16.7747 114.127 17.1851 114.643 17.4897C115.16 17.781 115.716 17.9267 116.312 17.9267C116.947 17.9267 117.543 17.7678 118.099 17.45C118.669 17.1322 119.059 16.7151 119.271 16.1987L120.781 16.6158C120.556 17.1189 120.218 17.5691 119.768 17.9664C119.331 18.3636 118.808 18.6748 118.199 18.8999C117.603 19.125 116.954 19.2375 116.252 19.2375ZM112.756 13.2392H119.827C119.774 12.5639 119.582 11.968 119.251 11.4516C118.92 10.9352 118.496 10.5313 117.98 10.24C117.464 9.94875 116.894 9.80307 116.272 9.80307C115.663 9.80307 115.1 9.94875 114.584 10.24C114.067 10.5313 113.644 10.9352 113.312 11.4516C112.995 11.968 112.81 12.5639 112.756 13.2392Z" fill="white"/>
<path d="M127.987 19.2375C127.206 19.2375 126.49 19.0985 125.842 18.8205C125.206 18.5291 124.65 18.1319 124.173 17.6287C123.71 17.1255 123.346 16.5495 123.081 15.9007C122.829 15.2519 122.703 14.5633 122.703 13.8351C122.703 12.8552 122.922 11.9614 123.359 11.1537C123.796 10.346 124.412 9.70379 125.206 9.22707C126 8.73715 126.921 8.49219 127.967 8.49219C128.986 8.49219 129.874 8.72391 130.628 9.18735C131.396 9.63755 131.966 10.2467 132.336 11.0147L130.628 11.5509C130.364 11.061 129.993 10.6836 129.516 10.4188C129.039 10.1407 128.51 10.0017 127.927 10.0017C127.292 10.0017 126.709 10.1672 126.179 10.4983C125.663 10.8293 125.252 11.2861 124.948 11.8687C124.643 12.4381 124.491 13.0935 124.491 13.8351C124.491 14.5633 124.643 15.2254 124.948 15.8213C125.266 16.4039 125.683 16.8673 126.199 17.2116C126.729 17.5559 127.311 17.728 127.947 17.728C128.358 17.728 128.748 17.6552 129.119 17.5095C129.503 17.3639 129.834 17.1719 130.112 16.9335C130.403 16.682 130.602 16.4105 130.708 16.1192L132.416 16.6356C132.204 17.1388 131.88 17.589 131.443 17.9863C131.019 18.3703 130.509 18.6748 129.913 18.8999C129.331 19.125 128.688 19.2375 127.987 19.2375Z" fill="white"/>
<path d="M143.392 19.0394H141.644V13.2396C141.644 12.1803 141.452 11.3858 141.068 10.8562C140.697 10.3265 140.161 10.0617 139.459 10.0617C139.009 10.0617 138.552 10.1809 138.089 10.4192C137.639 10.6576 137.241 10.982 136.897 11.3924C136.553 11.7897 136.301 12.2532 136.143 12.7828V19.0394H134.395V4.54004H136.143V10.8959C136.553 10.1544 137.109 9.57176 137.811 9.14804C138.526 8.71108 139.294 8.4926 140.115 8.4926C140.737 8.4926 141.254 8.60516 141.664 8.83024C142.088 9.04212 142.425 9.34668 142.677 9.74392C142.929 10.1412 143.107 10.6046 143.213 11.1342C143.333 11.6507 143.392 12.22 143.392 12.8424V19.0394Z" fill="white"/>
<path d="M5.81076 13.7364C4.7826 14.7645 4.7826 16.4315 5.81076 17.4597C6.83888 18.4878 8.50588 18.4878 9.53404 17.4597L13.6098 13.3839L17.2344 17.0085L13.7593 20.4835L13.1728 21.0763L12.3632 21.8782C11.6909 22.5508 10.8926 23.0844 10.014 23.4485C9.13532 23.8125 8.19356 23.9999 7.24248 23.9999C6.29144 23.9999 5.34968 23.8125 4.47104 23.4485C3.59242 23.0844 2.79412 22.5508 2.12178 21.8782C1.44911 21.2058 0.915508 20.4075 0.551448 19.5289C0.187385 18.6503 0 17.7085 0 16.7575C0 15.8064 0.187385 14.8646 0.551448 13.986C0.915508 13.1074 1.44911 12.3091 2.12178 11.6367L12.3114 1.44709C13.1107 0.647845 14.4065 0.647845 15.2057 1.44709C16.005 2.24633 16.005 3.54217 15.2057 4.34141L5.81076 13.7364Z" fill="#EF798A"/>
<path d="M15.1522 21.0296C14.918 21.2638 14.918 21.6435 15.1522 21.8777C16.5103 23.2358 18.3523 23.9987 20.2729 23.9987C21.3945 23.9987 22.4892 23.7386 23.4764 23.2517L18.2032 17.9785L15.1522 21.0296Z" fill="#EF798A"/>
<path d="M27.0315 19.3597L17.332 9.66027L20.3751 6.61719L25.3943 11.6364C26.7524 12.9945 27.5154 14.8365 27.5154 16.7571C27.5154 17.6557 27.3484 18.5371 27.0315 19.3597Z" fill="#EF798A"/>
</g>
<defs>
<clipPath id="clip0_932_1288">
<rect width="143.6" height="24" fill="white"/>
</clipPath>
</defs>
</svg>
