<?xml version="1.0" encoding="UTF-8"?>
<svg xmlns="http://www.w3.org/2000/svg" xmlns:xlink="http://www.w3.org/1999/xlink" width="125px" height="27px" viewBox="0 0 126 27" version="1.1">
<g id="surface1">
<path style=" stroke:none;fill-rule:nonzero;fill:rgb(0%,0%,0%);fill-opacity:0.3;" d="M 39.136719 4.027344 C 37.660156 4.027344 36.242188 4.214844 35.660156 4.371094 C 34.820312 4.609375 34.609375 4.976562 34.449219 5.742188 L 31.109375 21.203125 C 31.054688 21.519531 31.003906 21.78125 31.003906 22.046875 C 31.003906 22.8125 31.503906 23.3125 32.320312 23.3125 C 33.214844 23.3125 33.582031 22.734375 33.765625 21.835938 L 34.714844 17.429688 C 35.371094 17.507812 36.242188 17.589844 37.480469 17.589844 C 42.929688 17.589844 46.324219 14.632812 46.324219 10.175781 C 46.324219 6.269531 43.609375 4.027344 39.136719 4.027344 Z M 37.347656 15.054688 C 36.503906 15.054688 35.84375 15.027344 35.242188 14.949219 L 37.003906 6.746094 C 37.558594 6.667969 38.375 6.558594 39.21875 6.558594 C 42.113281 6.558594 43.589844 7.933594 43.589844 10.199219 C 43.585938 13.101562 41.480469 15.054688 37.347656 15.054688 Z M 37.347656 15.054688 "/>
<path style=" stroke:none;fill-rule:nonzero;fill:rgb(0%,0%,0%);fill-opacity:0.3;" d="M 124.90625 18.21875 C 124.457031 18.21875 124.167969 18.484375 123.617188 19.089844 C 122.640625 20.09375 122.035156 20.648438 121.273438 20.648438 C 120.589844 20.648438 120.222656 20.09375 120.222656 19.195312 C 120.222656 18.695312 120.324219 18.089844 120.457031 17.429688 L 121.433594 12.839844 L 124.355469 12.839844 C 125.277344 12.839844 125.828125 12.308594 125.828125 11.359375 C 125.828125 10.832031 125.488281 10.4375 124.699219 10.4375 L 121.957031 10.4375 L 122.429688 8.300781 C 122.484375 7.984375 122.535156 7.695312 122.535156 7.429688 C 122.535156 6.691406 122.035156 6.164062 121.21875 6.164062 C 120.351562 6.164062 119.957031 6.742188 119.773438 7.640625 L 119.167969 10.4375 L 117.929688 10.4375 C 116.980469 10.4375 116.429688 10.964844 116.429688 11.914062 C 116.429688 12.445312 116.796875 12.839844 117.585938 12.839844 L 118.664062 12.839844 L 117.691406 17.375 C 117.585938 17.878906 117.453125 18.695312 117.453125 19.539062 C 117.453125 21.675781 118.5625 23.230469 120.929688 23.230469 C 122.300781 23.230469 123.507812 22.546875 124.429688 21.726562 C 125.328125 20.9375 125.984375 19.960938 125.984375 19.328125 C 125.984375 18.722656 125.511719 18.21875 124.90625 18.21875 Z M 124.90625 18.21875 "/>
<path style=" stroke:none;fill-rule:nonzero;fill:rgb(0%,0%,0%);fill-opacity:0.3;" d="M 64.355469 5.585938 C 64.355469 4.820312 63.828125 4.316406 63.011719 4.316406 C 62.144531 4.316406 61.75 4.898438 61.566406 5.796875 L 58.277344 21.121094 C 58.195312 21.4375 58.144531 21.703125 58.144531 21.96875 C 58.144531 22.734375 58.671875 23.230469 59.460938 23.230469 C 60.355469 23.230469 60.75 22.652344 60.933594 21.753906 L 64.222656 6.429688 C 64.277344 6.109375 64.355469 5.847656 64.355469 5.585938 Z M 64.355469 5.585938 "/>
<path style=" stroke:none;fill-rule:nonzero;fill:rgb(0%,0%,0%);fill-opacity:0.3;" d="M 111.347656 10.171875 C 107.132812 10.171875 104.265625 14.367188 104.265625 18.351562 C 104.265625 18.425781 104.265625 18.5 104.269531 18.574219 C 103.609375 19.578125 102.761719 20.621094 102.183594 20.621094 C 101.765625 20.621094 101.605469 20.226562 101.605469 19.617188 C 101.605469 18.878906 101.816406 17.636719 102.054688 16.554688 L 104.238281 6.425781 C 104.292969 6.109375 104.34375 5.84375 104.34375 5.582031 C 104.34375 4.816406 103.84375 4.3125 103.027344 4.3125 C 102.132812 4.3125 101.765625 4.894531 101.578125 5.792969 L 100.394531 11.277344 C 99.761719 10.621094 98.839844 10.167969 97.445312 10.167969 C 94.648438 10.167969 91.835938 12.328125 90.738281 15.636719 C 89.53125 18.765625 88.449219 20.617188 87.597656 20.617188 C 87.285156 20.617188 87.097656 20.351562 87.097656 19.90625 C 87.097656 18.585938 87.835938 15.367188 88.152344 13.8125 C 88.253906 13.230469 88.308594 12.992188 88.308594 12.652344 C 88.308594 11.492188 86.386719 10.117188 83.886719 10.117188 C 80.996094 10.117188 78.375 11.953125 77.0625 14.679688 C 75.113281 18.132812 73.320312 20.617188 72.4375 20.617188 C 72.039062 20.617188 71.910156 20.117188 71.804688 19.640625 L 71.148438 16.003906 L 75.175781 12.707031 C 75.542969 12.390625 76.019531 11.941406 76.019531 11.363281 C 76.019531 10.648438 75.542969 10.175781 74.832031 10.175781 C 74.304688 10.175781 73.859375 10.492188 73.410156 10.859375 L 67.359375 15.871094 L 69.382812 6.429688 C 69.4375 6.113281 69.515625 5.847656 69.515625 5.585938 C 69.515625 4.820312 68.988281 4.316406 68.171875 4.316406 C 67.304688 4.316406 66.910156 4.898438 66.726562 5.796875 L 63.4375 21.121094 C 63.355469 21.4375 63.304688 21.703125 63.304688 21.96875 C 63.304688 22.734375 63.832031 23.230469 64.621094 23.230469 C 65.515625 23.230469 65.910156 22.652344 66.09375 21.753906 L 66.515625 19.777344 L 68.992188 17.773438 L 69.597656 20.832031 C 69.832031 22.046875 70.464844 23.230469 72.097656 23.230469 C 73.722656 23.230469 75 21.746094 76.28125 19.738281 C 76.667969 21.84375 78.160156 23.230469 80.234375 23.230469 C 82.3125 23.230469 83.734375 21.992188 84.65625 20.328125 L 84.65625 20.382812 C 84.65625 22.097656 85.527344 23.230469 87.050781 23.230469 C 88.433594 23.230469 89.578125 22.398438 90.605469 20.625 C 91.183594 22.167969 92.484375 23.230469 94.289062 23.230469 C 96.421875 23.230469 97.949219 21.941406 98.921875 20.144531 L 98.921875 20.304688 C 98.921875 22.203125 99.871094 23.234375 101.425781 23.234375 C 102.796875 23.234375 103.960938 22.4375 104.957031 21.136719 C 105.714844 22.4375 107.070312 23.234375 108.902344 23.234375 C 113.113281 23.234375 115.984375 19.039062 115.984375 15.027344 C 115.980469 12.203125 114.269531 10.171875 111.347656 10.171875 Z M 85.101562 15.53125 C 84.335938 18.828125 82.707031 20.703125 80.863281 20.703125 C 79.625 20.703125 78.941406 19.75 78.941406 18.328125 C 78.941406 15.53125 80.96875 12.523438 83.679688 12.523438 C 84.496094 12.523438 85.125 12.761719 85.679688 13.101562 Z M 99.765625 14.132812 C 98.921875 18.011719 97 20.703125 94.894531 20.703125 C 93.738281 20.703125 93.050781 19.804688 93.050781 18.328125 C 93.050781 15.503906 95 12.578125 97.605469 12.578125 C 98.605469 12.578125 99.367188 12.917969 99.921875 13.367188 Z M 109.214844 20.703125 C 107.6875 20.703125 107.054688 19.59375 107.054688 18.195312 C 107.054688 15.636719 108.820312 12.707031 111.03125 12.707031 C 112.558594 12.707031 113.191406 13.816406 113.191406 15.214844 C 113.191406 17.800781 111.425781 20.703125 109.214844 20.703125 Z M 109.214844 20.703125 "/>
<path style=" stroke:none;fill-rule:nonzero;fill:rgb(0%,0%,0%);fill-opacity:0.3;" d="M 52.878906 10.171875 C 48.667969 10.171875 45.796875 14.367188 45.796875 18.351562 C 45.796875 21.199219 47.507812 23.230469 50.429688 23.230469 C 54.640625 23.230469 57.511719 19.039062 57.511719 15.027344 C 57.511719 12.203125 55.800781 10.171875 52.878906 10.171875 Z M 50.746094 20.703125 C 49.21875 20.703125 48.585938 19.59375 48.585938 18.195312 C 48.585938 15.636719 50.351562 12.707031 52.5625 12.707031 C 54.089844 12.707031 54.722656 13.816406 54.722656 15.214844 C 54.71875 17.800781 52.957031 20.703125 50.746094 20.703125 Z M 50.746094 20.703125 "/>
<path style=" stroke:none;fill-rule:nonzero;fill:rgb(90.196078%,0%,47.843137%);fill-opacity:0.3;" d="M 17.539062 2.832031 C 17.539062 1.269531 15.363281 0 12.679688 0 C 10 0 7.824219 1.269531 7.824219 2.832031 C 7.824219 4.394531 10 5.664062 12.679688 5.664062 C 15.363281 5.664062 17.539062 4.394531 17.539062 2.832031 Z M 17.539062 2.832031 "/>
<path style=" stroke:none;fill-rule:nonzero;fill:rgb(90.196078%,0%,47.843137%);fill-opacity:0.3;" d="M 17.539062 24.167969 C 17.539062 22.601562 15.363281 21.335938 12.679688 21.335938 C 10 21.335938 7.824219 22.601562 7.824219 24.167969 C 7.824219 25.730469 10 27 12.679688 27 C 15.363281 27 17.539062 25.730469 17.539062 24.167969 Z M 17.539062 24.167969 "/>
<path style=" stroke:none;fill-rule:nonzero;fill:rgb(90.196078%,0%,47.843137%);fill-opacity:0.3;" d="M 5.890625 3.949219 C 4.539062 3.167969 2.355469 4.421875 1.015625 6.75 C -0.328125 9.078125 -0.320312 11.597656 1.035156 12.382812 C 2.386719 13.164062 4.570312 11.910156 5.910156 9.582031 C 7.253906 7.253906 7.242188 4.730469 5.890625 3.949219 Z M 5.890625 3.949219 "/>
<path style=" stroke:none;fill-rule:nonzero;fill:rgb(90.196078%,0%,47.843137%);fill-opacity:0.3;" d="M 24.328125 14.617188 C 22.976562 13.835938 20.792969 15.089844 19.453125 17.417969 C 18.109375 19.746094 18.121094 22.265625 19.46875 23.050781 C 20.820312 23.832031 23.003906 22.578125 24.347656 20.25 C 25.6875 17.921875 25.679688 15.398438 24.328125 14.617188 Z M 24.328125 14.617188 "/>
<path style=" stroke:none;fill-rule:nonzero;fill:rgb(90.196078%,0%,47.843137%);fill-opacity:0.3;" d="M 5.910156 17.414062 C 4.570312 15.085938 2.386719 13.832031 1.035156 14.617188 C -0.316406 15.398438 -0.328125 17.921875 1.015625 20.25 C 2.355469 22.578125 4.539062 23.832031 5.890625 23.046875 C 7.246094 22.265625 7.253906 19.746094 5.910156 17.414062 Z M 5.910156 17.414062 "/>
<path style=" stroke:none;fill-rule:nonzero;fill:rgb(90.196078%,0%,47.843137%);fill-opacity:0.3;" d="M 24.347656 6.75 C 23.007812 4.421875 20.824219 3.167969 19.472656 3.949219 C 18.121094 4.730469 18.113281 7.253906 19.453125 9.582031 C 20.796875 11.910156 22.980469 13.164062 24.328125 12.382812 C 25.679688 11.601562 25.6875 9.078125 24.347656 6.75 Z M 24.347656 6.75 "/>
</g>
</svg>
