<svg width="34" height="34" viewBox="0 0 34 34" fill="none" xmlns="http://www.w3.org/2000/svg">
<path d="M33.0556 9.44477H24.5552V0.944398C24.5552 0.693951 24.4558 0.453647 24.2787 0.276538C24.1016 0.0994295 23.8613 0 23.6108 0H0.944428C0.422666 0 0 0.422629 0 0.944428V23.6108C0 23.8613 0.0994221 24.1016 0.276538 24.2787C0.453647 24.4558 0.69395 24.5552 0.944397 24.5552H9.44477V33.0556C9.44477 33.306 9.54419 33.5464 9.7213 33.7235C9.89841 33.9006 10.1387 34 10.3892 34H33.0556C33.306 34 33.5463 33.9006 33.7234 33.7235C33.9005 33.5463 34 33.306 34 33.0556V10.3892C34 10.1387 33.9006 9.89844 33.7234 9.72133C33.5463 9.54422 33.306 9.4448 33.0556 9.4448L33.0556 9.44477ZM1.88883 1.88905H22.6667V22.6669H1.88883V1.88905ZM32.111 32.1112H11.3331V24.5555H23.6106C23.861 24.5555 24.1013 24.456 24.2784 24.2789C24.4556 24.1018 24.555 23.8615 24.555 23.6111V11.3336H32.1107L32.111 32.1112Z" fill="#EB6677"/>
<path d="M10.3877 11.3341C10.7718 11.3355 11.1191 11.1051 11.2669 10.7506C11.4145 10.3958 11.3336 9.98705 11.062 9.71515C10.7904 9.44354 10.3817 9.36267 10.0269 9.51051C9.67208 9.65805 9.44163 10.0053 9.44337 10.3897C9.44511 10.6402 9.54309 10.8802 9.71701 11.0602C9.89817 11.2326 10.1376 11.3303 10.3878 11.3341L10.3877 11.3341Z" fill="#EB6677"/>
<path d="M11.3322 19.8344V18.8897C11.3322 18.3683 10.9093 17.9453 10.3878 17.9453C9.86602 17.9453 9.44336 18.3682 9.44336 18.8897V19.8344C9.44336 20.3559 9.86599 20.7788 10.3878 20.7788C10.9093 20.7788 11.3322 20.3559 11.3322 19.8344Z" fill="#EB6677"/>
<path d="M10.3878 16.0552C10.6383 16.0552 10.8786 15.9557 11.0557 15.7786C11.2328 15.6012 11.3322 15.3612 11.3322 15.1108V14.1661C11.3322 13.6446 10.9093 13.2217 10.3878 13.2217C9.86603 13.2217 9.44336 13.6446 9.44336 14.1661V15.1108C9.44336 15.3612 9.54278 15.6012 9.7199 15.7786C9.89701 15.9557 10.1373 16.0552 10.3878 16.0552H10.3878Z" fill="#EB6677"/>
<path d="M14.1673 11.3342H15.112C15.6335 11.3342 16.0564 10.9112 16.0564 10.3897C16.0564 9.86798 15.6335 9.44531 15.112 9.44531H14.1673C13.6459 9.44531 13.2229 9.86794 13.2229 10.3897C13.2229 10.9112 13.6458 11.3342 14.1673 11.3342Z" fill="#EB6677"/>
<path d="M18.8878 11.3342H19.8324C20.3539 11.3342 20.7769 10.9112 20.7769 10.3897C20.7769 9.86798 20.3539 9.44531 19.8324 9.44531H18.8878C18.3663 9.44531 17.9434 9.86794 17.9434 10.3897C17.9434 10.9112 18.3663 11.3342 18.8878 11.3342Z" fill="#EB6677"/>
</svg>
