<svg width="1440" height="525" viewBox="0 0 1440 525" fill="none" xmlns="http://www.w3.org/2000/svg">
<path d="M1440 0H0V525H1440V0Z" fill="#194567"/>
<path d="M1027.61 0.681641V143.362" stroke="#717171" stroke-width="0.5"/>
<path d="M683.803 101.928V304.609" stroke="#717171" stroke-width="0.5"/>
<path d="M798.198 520.921L798.197 318.24" stroke="#717171" stroke-width="0.5"/>
<path d="M1358 228V317.849" stroke="#717171" stroke-width="0.5"/>
<path d="M124 394.849L124 305" stroke="#717171" stroke-width="0.5"/>
<path d="M1261.54 37.3027H1058.86" stroke="#717171" stroke-width="0.5"/>
<path d="M1125.29 246.338H922.61" stroke="#717171" stroke-width="0.5"/>
<path d="M356.71 376.511L559.391 376.511" stroke="#717171" stroke-width="0.5"/>
<path d="M611.681 138H409" stroke="#717171" stroke-width="0.5"/>
<path d="M870.319 484.849L1073 484.849" stroke="#717171" stroke-width="0.5"/>
<path d="M815.639 36.6203H826.899M821.269 30.9902V42.2503V30.9902Z" stroke="#717171" stroke-linecap="round" stroke-linejoin="round"/>
<path d="M476.711 67.0216H487.971M482.341 61.3916V72.6517V61.3916Z" stroke="#717171" stroke-linecap="round" stroke-linejoin="round"/>
<path d="M62 215.63H73.2601M67.63 210V221.26V210Z" stroke="#717171" stroke-linecap="round" stroke-linejoin="round"/>
<path d="M1185 443.219L1173.74 443.219M1179.37 448.849L1179.37 437.589L1179.37 448.849Z" stroke="#717171" stroke-linecap="round" stroke-linejoin="round"/>
<path d="M1023.43 218.397L1031.39 210.435M1023.43 210.435L1031.39 218.397L1023.43 210.435Z" stroke="#717171" stroke-linecap="round" stroke-linejoin="round"/>
<path d="M458.573 404.452L450.611 412.414M458.573 412.414L450.611 404.452L458.573 412.414Z" stroke="#717171" stroke-linecap="round" stroke-linejoin="round"/>
<path d="M1319 40.962L1326.96 33M1319 33L1326.96 40.962L1319 33Z" stroke="#717171" stroke-linecap="round" stroke-linejoin="round"/>
<path d="M629.324 289.256L637.287 297.218M629.324 297.218L637.287 289.256" stroke="#717171" stroke-linecap="round" stroke-linejoin="round"/>
<path d="M852.676 333.593L844.714 325.631M852.676 325.631L844.714 333.593" stroke="#717171" stroke-linecap="round" stroke-linejoin="round"/>
<g style="mix-blend-mode:multiply">
<path d="M527.562 232.886L533.225 223.095L527.562 213.303V232.886ZM544.52 223.095H533.214H544.52ZM537.701 213H528.728C528.334 213 527.948 213.105 527.608 213.301C527.267 213.498 526.984 213.781 526.787 214.121L522.301 221.973C522.104 222.314 522 222.701 522 223.095C522 223.489 522.104 223.875 522.301 224.216L526.787 232.068C526.984 232.409 527.267 232.692 527.608 232.889C527.948 233.086 528.334 233.189 528.728 233.189H537.701C538.094 233.189 538.48 233.086 538.822 232.889C539.162 232.692 539.444 232.409 539.641 232.068L544.127 224.216C544.324 223.875 544.428 223.489 544.428 223.095C544.428 222.701 544.324 222.314 544.127 221.973L539.641 214.121C539.444 213.781 539.162 213.498 538.822 213.301C538.48 213.105 538.094 213 537.701 213Z" stroke="#CCCCCC" stroke-width="0.5" stroke-linecap="round" stroke-linejoin="round"/>
</g>
<path d="M1222.13 140.899L1252.73 132.727L1260.9 102.126L1222.13 140.899ZM1275.09 155.09L1252.7 132.705L1275.09 155.09ZM1281.57 121.601L1263.81 103.835C1263.03 103.057 1262.06 102.497 1260.99 102.214C1259.93 101.929 1258.81 101.929 1257.75 102.215L1233.32 108.876C1232.25 109.162 1231.28 109.723 1230.5 110.502C1229.72 111.281 1229.16 112.253 1228.88 113.318L1222.21 137.746C1221.93 138.81 1221.93 139.93 1222.21 140.994C1222.5 142.058 1223.06 143.029 1223.83 143.808L1241.6 161.574C1242.38 162.352 1243.35 162.911 1244.42 163.196C1245.48 163.481 1246.6 163.481 1247.66 163.195L1272.09 156.533C1273.16 156.247 1274.13 155.686 1274.91 154.907C1275.69 154.128 1276.25 153.156 1276.53 152.091L1283.19 127.663C1283.48 126.599 1283.48 125.479 1283.2 124.415C1282.91 123.351 1282.35 122.38 1281.57 121.601Z" stroke="#CCCCCC" stroke-linecap="round" stroke-linejoin="round"/>
<path d="M669.26 490.63L658 490.63M663.63 496.26L663.63 485L663.63 496.26Z" stroke="#717171" stroke-linecap="round" stroke-linejoin="round"/>
<path d="M341.962 214L334 221.962M341.962 221.962L334 214L341.962 221.962Z" stroke="#717171" stroke-linecap="round" stroke-linejoin="round"/>
<path d="M6.67572e-06 61L202.681 61" stroke="#717171" stroke-width="0.5"/>
</svg>
