<svg width="1440" height="900" viewBox="0 0 1440 900" fill="none" xmlns="http://www.w3.org/2000/svg">
<path d="M1440 0H0V791H1440V0Z" fill="#08375B"/>
<path d="M324 -150V108.462" stroke="#CCCCCC" stroke-opacity="0.25" stroke-width="0.5"/>
<path d="M919.334 120.513V378.974" stroke="#CCCCCC" stroke-opacity="0.25" stroke-width="0.5"/>
<path d="M1353 120.513V378.974" stroke="#CCCCCC" stroke-opacity="0.25" stroke-width="0.5"/>
<path d="M659.436 294.256V552.717" stroke="#CCCCCC" stroke-opacity="0.25" stroke-width="0.5"/>
<path d="M224 515.385V773.846" stroke="#CCCCCC" stroke-opacity="0.25" stroke-width="0.5"/>
<path d="M838.924 661.846V791.306" stroke="#CCCCCC" stroke-opacity="0.25" stroke-width="0.5"/>
<path d="M1217.64 250.103H959.18" stroke="#CCCCCC" stroke-opacity="0.25" stroke-width="0.5"/>
<path d="M1043.9 478.41H785.436" stroke="#CCCCCC" stroke-opacity="0.25" stroke-width="0.5"/>
<path d="M1309.54 791.077H1051.08" stroke="#CCCCCC" stroke-opacity="0.25" stroke-width="0.5"/>
<path d="M773.462 148.154H515" stroke="#CCCCCC" stroke-opacity="0.25" stroke-width="0.5"/>
<path d="M1465.46 666H1207" stroke="#CCCCCC" stroke-opacity="0.25" stroke-width="0.5"/>
<path d="M353.231 393.692H94.7695" stroke="#CCCCCC" stroke-opacity="0.25" stroke-width="0.5"/>
<path d="M522.667 644.615H264.205" stroke="#CCCCCC" stroke-opacity="0.25" stroke-width="0.5"/>
<path d="M656.205 203.795V218.154V203.795ZM649.025 210.974H663.384H649.025Z" fill="#08375B"/>
<path d="M649.025 210.974H663.384M656.205 203.795V218.154V203.795Z" stroke="#CCCCCC" stroke-opacity="0.25" stroke-linecap="round" stroke-linejoin="round"/>
<path d="M369.179 188V202.359V188ZM362 195.179H376.359H362Z" fill="#08375B"/>
<path d="M362 195.179H376.359M369.179 188V202.359V188Z" stroke="#CCCCCC" stroke-opacity="0.25" stroke-linecap="round" stroke-linejoin="round"/>
<path d="M224 242.564V256.923V242.564ZM216.82 249.744H231.179H216.82Z" fill="#08375B"/>
<path d="M216.82 249.744H231.179M224 242.564V256.923V242.564Z" stroke="#CCCCCC" stroke-opacity="0.25" stroke-linecap="round" stroke-linejoin="round"/>
<path d="M224 884.41V898.769V884.41ZM216.821 891.59H231.18H216.821Z" fill="#08375B"/>
<path d="M216.821 891.59H231.18M224 884.41V898.769V884.41Z" stroke="#CCCCCC" stroke-opacity="0.25" stroke-linecap="round" stroke-linejoin="round"/>
<path d="M656.205 661.846V676.205V661.846ZM649.025 669.025H663.384H649.025Z" fill="#08375B"/>
<path d="M649.025 669.025H663.384M656.205 661.846V676.205V661.846Z" stroke="#CCCCCC" stroke-opacity="0.25" stroke-linecap="round" stroke-linejoin="round"/>
<path d="M1271.18 501V515.359V501ZM1264 508.179H1278.36H1264Z" fill="#08375B"/>
<path d="M1264 508.179H1278.36M1271.18 501V515.359V501Z" stroke="#CCCCCC" stroke-opacity="0.25" stroke-linecap="round" stroke-linejoin="round"/>
<path d="M1134.36 106.154V120.513V106.154ZM1127.18 113.334H1141.54H1127.18Z" fill="#08375B"/>
<path d="M1127.18 113.334H1141.54M1134.36 106.154V120.513V106.154Z" stroke="white" stroke-opacity="0.25" stroke-linecap="round" stroke-linejoin="round"/>
<path d="M914 432.625L924.153 442.778L914 432.625ZM914 442.778L924.153 432.625L914 442.778Z" fill="#08375B"/>
<path d="M914 442.778L924.153 432.625M914 432.625L924.153 442.778L914 432.625Z" stroke="#CCCCCC" stroke-opacity="0.25" stroke-linecap="round" stroke-linejoin="round"/>
<path d="M914 735.847L924.153 746L914 735.847ZM914 746L924.153 735.847L914 746Z" fill="#08375B"/>
<path d="M914 746L924.153 735.847M914 735.847L924.153 746L914 735.847Z" stroke="#CCCCCC" stroke-opacity="0.25" stroke-linecap="round" stroke-linejoin="round"/>
<path d="M72 666L82.1532 676.153L72 666ZM72 676.153L82.1532 666L72 676.153Z" fill="#08375B"/>
<path d="M72 676.153L82.1532 666M72 666L82.1532 676.153L72 666Z" stroke="#CCCCCC" stroke-opacity="0.25" stroke-linecap="round" stroke-linejoin="round"/>
<path d="M411.436 533.139L421.589 543.292L411.436 533.139ZM411.436 543.292L421.589 533.139L411.436 543.292Z" fill="#08375B"/>
<path d="M411.436 543.292L421.589 533.139M411.436 533.139L421.589 543.292L411.436 533.139Z" stroke="#CCCCCC" stroke-opacity="0.25" stroke-linecap="round" stroke-linejoin="round"/>
<path d="M63 138L73.1534 148.153L63 138ZM63 148.153L73.1534 138L63 148.153Z" fill="#08375B"/>
<path d="M63 148.153L73.1534 138M63 138L73.1534 148.153L63 138Z" stroke="#CCCCCC" stroke-opacity="0.25" stroke-linecap="round" stroke-linejoin="round"/>
</svg>
