<svg width="1440" height="333" viewBox="0 0 1440 333" fill="none" xmlns="http://www.w3.org/2000/svg">
<path d="M1440 0H0V333H1440V0Z" fill="#08375B"/>
<mask id="mask0_291_11896" style="mask-type:alpha" maskUnits="userSpaceOnUse" x="0" y="42" width="198" height="239">
<rect y="42.6816" width="198" height="238" fill="#D9D9D9"/>
</mask>
<g mask="url(#mask0_291_11896)">
<path fill-rule="evenodd" clip-rule="evenodd" d="M-25.2453 175.176C-35.8184 185.746 -35.8184 202.881 -25.2453 213.45C-14.6722 224.02 2.47005 224.02 13.0431 213.451L54.9564 171.553L92.2299 208.812L56.4936 244.535L50.462 250.628L42.1369 258.87C35.2229 265.785 27.0137 271.27 17.9783 275.013C8.94293 278.756 -0.741585 280.682 -10.5219 280.682C-20.3022 280.682 -29.9866 278.756 -39.022 275.013C-48.0574 271.27 -56.2667 265.785 -63.1807 258.87C-70.0981 251.959 -75.5854 243.753 -79.3292 234.721C-83.073 225.689 -85 216.008 -85 206.232C-85 196.455 -83.073 186.774 -79.3292 177.742C-75.5854 168.711 -70.0981 160.505 -63.1807 153.593L41.61 48.8421C49.8268 40.6282 63.1456 40.6282 71.3624 48.8421C79.5836 57.0605 79.5836 70.3873 71.3624 78.6056L-25.2453 175.176ZM70.8353 250.152C68.4273 252.559 68.4273 256.463 70.8353 258.87C84.8012 272.831 103.743 280.675 123.494 280.675C135.027 280.675 146.285 278 156.436 272.995L102.211 218.789L70.8353 250.152ZM93.2441 133.279L192.988 232.986C196.247 224.529 197.964 215.469 197.964 206.232C197.964 186.489 190.118 167.554 176.152 153.593L124.537 101.998L93.2441 133.279Z" fill="white" fill-opacity="0.07"/>
</g>
</svg>
