<svg width="34" height="30" viewBox="0 0 34 30" fill="none" xmlns="http://www.w3.org/2000/svg">
<path d="M17.2654 0C12.7171 0.0775238 8.37594 1.91166 5.15625 5.11693C1.93633 8.3219 0.0891329 12.6476 0.00315925 17.1843C-0.0830697 21.7206 1.59874 26.1132 4.69454 29.4375L5.21575 30L5.86102 29.5846C9.2842 27.3567 13.2802 26.1629 17.368 26.1474C21.3168 26.15 25.1784 27.3046 28.4777 29.4685L29.1465 29.9047L29.6694 29.3024V29.3027C32.4836 26.0266 34.0209 21.8493 33.9998 17.5356C33.9998 7.70279 26.6487 0.000592488 17.2646 0.000592488L17.2654 0ZM28.7844 27.5063C25.3415 25.4255 21.3933 24.3247 17.3683 24.3232C13.1968 24.3358 9.10728 25.4814 5.53919 27.6367C2.96839 24.5988 1.64905 20.7011 1.84795 16.7308C2.04685 12.7605 3.74883 9.01364 6.61067 6.24653C9.47213 3.47951 13.2801 1.89863 17.2654 1.82322C25.624 1.82322 32.1722 8.72457 32.1722 17.5347C32.1893 21.1422 30.997 24.6519 28.7846 27.506L28.7844 27.5063Z" fill="#EB6677"/>
<path d="M24.8483 8.09961L19.4401 13.4944V13.4942C18.7676 12.9334 17.9202 12.6239 17.0435 12.6192C16.0049 12.606 15.0039 13.0085 14.2647 13.7366C13.5253 14.4645 13.1094 15.4576 13.1094 16.4937C13.1094 17.5299 13.5253 18.523 14.2647 19.2511C15.0039 19.9792 16.0049 20.3814 17.0435 20.3682C18.0701 20.3738 19.0556 19.9663 19.7771 19.2385C20.4989 18.5104 20.8963 17.5231 20.8794 16.4995C20.8791 15.9686 20.7703 15.4435 20.5591 14.9565L26.1407 9.38873L24.8483 8.09961ZM17.0431 18.5449C16.4894 18.5581 15.9535 18.3478 15.5573 17.9616C15.1607 17.5755 14.9372 17.0463 14.9372 16.4937C14.9372 15.9411 15.1607 15.4119 15.5573 15.0257C15.9535 14.6396 16.4894 14.4293 17.0431 14.4424C17.7661 14.46 18.427 14.8546 18.7833 15.4821C19.14 16.1096 19.14 16.8778 18.7833 17.5053C18.427 18.1327 17.7661 18.5276 17.0431 18.5449V18.5449Z" fill="#EB6677"/>
<path d="M17.1546 6.99259C18.6012 6.99171 20.0279 7.329 21.3202 7.97751L22.6814 6.61957C21.0078 5.66505 19.1128 5.1648 17.1849 5.16922C14.151 5.16688 11.2384 6.35656 9.07784 8.48038C6.91709 10.6044 5.68222 13.4917 5.64062 16.5173C5.64062 16.6408 5.65588 16.7604 5.65969 16.883H7.48819C7.4832 16.7595 7.46883 16.6384 7.46883 16.5138C7.50373 13.9755 8.54001 11.5528 10.3526 9.7707C12.1655 7.9886 14.6093 6.9905 17.1546 6.99252L17.1546 6.99259Z" fill="#EB6677"/>
</svg>
