<svg width="36" height="32" viewBox="0 0 36 32" fill="none" xmlns="http://www.w3.org/2000/svg">
<path d="M33.75 18.2857V24.5714C33.75 26.2857 32.7375 27.7714 31.1625 28.5714L29.25 29.4857L27.3375 28.5714C25.7625 27.8857 24.75 26.2857 24.75 24.5714V18.2857H33.75ZM36 16H22.5V24.5714C22.5 27.0857 23.9625 29.4857 26.325 30.6286L29.25 32L32.175 30.6286C34.5375 29.4857 36 27.2 36 24.5714V16Z" fill="#EB6677"/>
<path d="M18 26.2857H8.4375C3.825 26.2857 0 22.4 0 17.7143C0 13.4857 3.0375 10.0571 6.975 9.25714C7.9875 3.88571 12.6 0 18 0C24.1875 0 29.25 5.14286 29.25 11.4286H27C27 6.4 22.95 2.28571 18 2.28571C13.3875 2.28571 9.5625 5.82857 9 10.4V11.4286H7.9875C4.725 11.6571 2.25 14.4 2.25 17.7143C2.25 21.1429 5.0625 24 8.4375 24H18V26.2857Z" fill="#EB6677"/>
</svg>
