<svg width="64" height="64" viewBox="0 0 64 64" fill="none" xmlns="http://www.w3.org/2000/svg">
<rect width="63.9996" height="63.9993" rx="10" fill="#FCEBED"/>
<path d="M30.2497 29.875C34.1842 29.875 37.3744 26.6845 37.3744 22.7503C37.3744 18.8155 34.184 15.625 30.2497 15.625C26.3142 15.625 23.125 18.8155 23.125 22.7503C23.125 26.6846 26.3145 29.875 30.2497 29.875ZM30.2497 17.375C33.2131 17.375 35.6244 19.7868 35.6244 22.7503C35.6244 25.7137 33.2128 28.125 30.2497 28.125C27.2866 28.125 24.875 25.7136 24.875 22.7503C24.875 19.7869 27.2866 17.375 30.2497 17.375Z" fill="#EB6677" stroke="#EF798A" stroke-width="0.75"/>
<path d="M47.6121 32.2107L47.6472 32.2157C48.0669 32.2763 48.3834 32.6376 48.3744 33.067M47.6121 32.2107L47.9995 33.0592M47.6121 32.2107C47.5819 32.2058 47.5319 32.1975 47.4644 32.1853C47.3472 32.164 47.1783 32.1313 46.97 32.085C46.5529 31.9924 45.9796 31.8459 45.3462 31.6296C44.0679 31.1931 42.5944 30.4889 41.6417 29.4115L41.6415 29.4113C41.4845 29.234 41.2604 29.1309 41.0246 29.1252M47.6121 32.2107L41.0246 29.1252M48.3744 33.067L47.9995 33.0592M48.3744 33.067C48.3744 33.0668 48.3744 33.0666 48.3744 33.0664L47.9995 33.0592M48.3744 33.067C48.2706 38.4837 46.4621 41.6283 44.8747 43.348M47.9995 33.0592C47.8953 38.5031 46.0446 41.5754 44.4997 43.1998M44.8747 43.348V43.1998H44.4997M44.8747 43.348V45.646C44.8747 47.1527 43.6489 48.3743 42.1392 48.3743H18.3598C16.8502 48.3743 15.625 47.1526 15.625 45.646V39.9426C15.625 34.1897 19.7755 29.6857 24.9969 28.175L25.1959 28.1174L25.3506 28.2552C25.6545 28.526 25.9812 28.7718 26.3275 28.9901L27.0949 29.4739L26.2098 29.6732C24.2079 30.1238 22.3276 31.0715 20.8243 32.4183L20.8243 32.4183C18.5947 34.4158 17.3748 37.0875 17.3748 39.943V45.6464C17.3748 46.1838 17.8152 46.6247 18.3596 46.6247H42.1396C42.6843 46.6247 43.1248 46.1837 43.1248 45.6464V44.8555M44.8747 43.348C44.8402 43.3854 44.8058 43.4221 44.7714 43.4582L44.4997 43.1998M44.4997 43.1998L43.1248 44.8555M43.1248 44.8555C43.247 44.7733 43.3722 44.6848 43.4998 44.5897V45.6464C43.4998 46.3926 42.8895 46.9997 42.1396 46.9997H18.3596C17.6098 46.9997 16.9998 46.3926 16.9998 45.6464V39.943C16.9998 36.9758 18.269 34.2042 20.5741 32.139C22.0022 30.8595 23.7564 29.9312 25.6321 29.4293C25.7291 29.4965 25.8275 29.5615 25.9275 29.6245L26.1275 29.3073L26.0451 28.9415C25.9319 28.967 25.819 28.994 25.7066 29.0224C25.4965 28.8701 25.2945 28.7075 25.1011 28.5352L43.1248 44.8555ZM43.1248 44.8555C42.0282 45.5935 41.1787 45.8266 41.101 45.8469L41.1013 45.8469L41.0061 45.4842M43.1248 44.8555V44.3992C41.9712 45.2236 41.0577 45.4706 41.0061 45.4842M37.9335 31.1419C38.0641 31.0751 38.191 31.0062 38.3139 30.9362C37.2535 30.2679 36.0873 29.757 34.8673 29.4296C34.7705 29.4966 34.6722 29.5616 34.5726 29.6246L34.3723 29.3075L34.4547 28.9417C34.5678 28.9671 34.6806 28.9941 34.7929 29.0226C35.0031 28.8702 35.2053 28.7076 35.3987 28.5352C36.9085 28.9717 38.3203 29.6673 39.5632 30.5702M37.9335 31.1419C36.8137 30.4634 35.578 29.9633 34.29 29.6733L33.4059 29.4743L34.1721 28.9904C34.5184 28.7717 34.8454 28.5261 35.1491 28.2553L35.3038 28.1174L35.5028 28.1749C36.9635 28.5973 38.335 29.2555 39.5567 30.1055M37.9335 31.1419C38.0571 31.2168 38.1792 31.2938 38.2998 31.3729L40.5813 45.8191L40.7145 45.4685M37.9335 31.1419C37.0194 31.6098 35.9259 31.9796 34.7556 31.9796C34.6773 31.9796 34.5993 31.978 34.5207 31.9745M39.5567 30.1055C39.4885 30.1582 39.4166 30.2125 39.3411 30.268L39.5632 30.5702M39.5567 30.1055C39.6329 30.1585 39.7086 30.2123 39.7836 30.2668L39.5632 30.5702M39.5567 30.1055C40.0752 29.7048 40.3783 29.3966 40.3885 29.3863L40.3888 29.386L40.3899 29.3849C40.5463 29.2229 40.7672 29.1248 40.9976 29.1248L40.6596 29.6454C40.6496 29.6559 40.2447 30.0695 39.5632 30.5702M41.0246 29.1252C41.0262 29.1253 41.0277 29.1253 41.0293 29.1254L41.0137 29.5001L41.0212 29.1251L41.0246 29.1252ZM34.5207 31.9745C34.5201 31.9745 34.5195 31.9745 34.519 31.9744L34.5022 32.3491L34.523 31.9746C34.5222 31.9746 34.5215 31.9745 34.5207 31.9745ZM34.5207 31.9745C34.5068 31.9738 34.4928 31.9734 34.4786 31.9734C34.0319 31.9734 33.6555 32.3236 33.6333 32.7755L33.6333 32.7757C33.6275 32.8936 33.5174 35.3426 34.2841 38.1635C35.3184 41.9692 37.4846 44.6417 40.5811 45.819C40.5811 45.819 40.581 45.819 40.581 45.8189L40.7145 45.4685M40.7145 45.4685C40.769 45.4893 40.8271 45.4998 40.8849 45.4998C40.9255 45.4998 40.9661 45.4946 41.0061 45.4842M40.7145 45.4685C37.7549 44.3434 35.6565 41.7834 34.646 38.0651C33.8942 35.2991 34.0029 32.895 34.0078 32.7939L41.0061 45.4842M35.9731 37.7039L35.6113 37.8023L35.9731 37.7039C35.5305 36.0752 35.4098 34.5894 35.3818 33.7025C37.9074 33.4889 39.9778 32.0404 40.9769 31.2098C42.7871 32.7883 45.3379 33.5137 46.5979 33.7942C46.3559 38.3726 44.7718 40.9295 43.4833 42.2745L43.4586 42.3003C42.4098 43.3859 41.3781 43.8802 40.9104 44.0642C38.5537 43.0537 36.8381 40.8868 35.9731 37.7039Z" fill="#EB6677" stroke="#EF798A" stroke-width="0.75"/>
<path d="M38.5119 36.7309L38.5118 36.7307C38.2086 36.448 37.7342 36.4646 37.4518 36.7671L37.4517 36.7672C37.1694 37.0699 37.1852 37.5443 37.4881 37.8271L39.5984 39.7979C39.5985 39.798 39.5985 39.798 39.5985 39.798C39.7427 39.9327 39.9269 40.0001 40.1105 40.0001C40.2895 40.0001 40.4693 39.9362 40.6121 39.8076C40.6121 39.8076 40.6122 39.8075 40.6122 39.8075L44.5016 36.3076L44.5016 36.3076C44.8093 36.0307 44.8344 35.5564 44.5575 35.2484L44.5574 35.2483C44.2802 34.9403 43.8061 34.9156 43.4982 35.1924L43.4981 35.1925L40.1198 38.2329L38.5119 36.7309Z" fill="#EB6677" stroke="#EF798A" stroke-width="0.5"/>
</svg>
