<svg width="64" height="64" viewBox="0 0 64 64" fill="none" xmlns="http://www.w3.org/2000/svg">
<rect width="64" height="64" rx="10" fill="#FCEBED"/>
<path d="M41.4453 44.3459L41.4454 44.3457L41.4373 44.3422C39.9567 43.6976 39 42.1897 39 40.5714V34.5357H47.5V40.5714C47.5 42.1791 46.5523 43.584 45.0519 44.3472L43.25 45.2086L41.4453 44.3459ZM50.25 32V31.75H50H36.5H36.25V32V40.5714C36.25 43.1811 37.7668 45.6688 40.2161 46.8536L40.2161 46.8536L40.2189 46.8549L43.1439 48.2264L43.25 48.2761L43.3561 48.2264L46.2811 46.8549L46.2811 46.8549L46.2839 46.8536C48.731 45.6698 50.25 43.2977 50.25 40.5714V32Z" fill="#EB6677" stroke="#EF798A" stroke-width="0.5"/>
<path d="M32 42.5357H32.25V42.2857V40V39.75H32H22.4375C19.2043 39.75 16.5 37.0085 16.5 33.7143C16.5 30.5286 18.8746 27.9018 21.9963 27.6786H23H23.25V27.4286V26.4154C23.8044 21.9706 27.5248 18.5357 32 18.5357C36.8082 18.5357 40.75 22.5343 40.75 27.4286V27.6786H41H43.25H43.5V27.4286C43.5 21.0085 38.3293 15.75 32 15.75C26.532 15.75 21.8577 19.6452 20.7614 25.047C16.7935 25.9301 13.75 29.4194 13.75 33.7143C13.75 38.5343 17.6832 42.5357 22.4375 42.5357H32Z" fill="#EB6677" stroke="#EF798A" stroke-width="0.5"/>
</svg>
