<svg width="64" height="64" viewBox="0 0 64 64" fill="none" xmlns="http://www.w3.org/2000/svg">
<rect width="64" height="64" rx="10" fill="#FCEBED"/>
<path d="M48.6065 24.1948L48.5232 24.2901C48.6627 24.3494 48.7909 24.4353 48.9002 24.5446C49.1243 24.7686 49.25 25.0725 49.25 25.3892V48.0556C49.25 48.3723 49.1243 48.6762 48.9002 48.9002C48.6762 49.1243 48.3723 49.25 48.0556 49.25H25.3892C25.0725 49.25 24.7686 49.1243 24.5445 48.9002C24.3205 48.6762 24.1948 48.3723 24.1948 48.0556V39.8052H15.9444C15.6277 39.8052 15.3238 39.6795 15.0998 39.4555M48.6065 24.1948L15.0998 39.4555M48.6065 24.1948H48.0556M48.6065 24.1948H48.0556M15.0998 39.4555C15.0998 39.4555 15.0998 39.4555 15.0998 39.4555L15.2765 39.2787L15.0998 39.4555ZM48.0556 24.1948H39.8052H48.0556ZM17.1388 17.139H37.4167V37.4169H17.1388V17.139ZM46.861 46.8612H26.5831V39.8055H38.6106C38.9273 39.8055 39.2312 39.6798 39.4552 39.4557C39.6793 39.2317 39.805 38.9277 39.805 38.6111V26.5836H46.8607L46.861 46.8612Z" fill="#EB6677" stroke="#EF798A" stroke-width="0.5"/>
<path d="M25.9292 26.4566C26.1804 26.3304 26.3849 26.1172 26.4977 25.8468L26.4978 25.8466C26.6842 25.3983 26.582 24.882 26.2389 24.5385L26.2388 24.5384C25.8955 24.1952 25.3791 24.093 24.9309 24.2797L25.9292 26.4566ZM25.9292 26.4566L26.0968 26.5948L25.384 26.5841C25.0711 26.5794 24.7714 26.4571 24.5446 26.2412L24.5371 26.234L24.5372 26.2339C24.3187 26.0077 24.1956 25.7061 24.1934 25.3914L24.1934 25.3908C24.1912 24.9052 24.4823 24.4663 24.9307 24.2797L25.9292 26.4566Z" fill="#EB6677" stroke="#EF798A" stroke-width="0.5"/>
<path d="M26.5822 34.8344V33.8897C26.5822 33.2302 26.0474 32.6953 25.3878 32.6953C24.7279 32.6953 24.1934 33.2302 24.1934 33.8897V34.8344C24.1934 35.4939 24.7279 36.0288 25.3878 36.0288C26.0473 36.0288 26.5822 35.494 26.5822 34.8344Z" fill="#EB6677" stroke="#EF798A" stroke-width="0.5"/>
<path d="M26.2325 30.9554L26.2326 30.9552C26.4564 30.7311 26.5822 30.4276 26.5822 30.1108V29.1661C26.5822 28.5066 26.0474 27.9717 25.3878 27.9717C24.7279 27.9717 24.1934 28.5066 24.1934 29.1661V30.1108C24.1934 30.4276 24.3191 30.7311 24.543 30.9553L24.5431 30.9554C24.7672 31.1794 25.0711 31.3052 25.3878 31.3052H25.3878C25.7045 31.3052 26.0084 31.1794 26.2325 30.9554Z" fill="#EB6677" stroke="#EF798A" stroke-width="0.5"/>
<path d="M29.1673 26.5842H30.112C30.7715 26.5842 31.3064 26.0493 31.3064 25.3897C31.3064 24.7299 30.7715 24.1953 30.112 24.1953H29.1673C28.5078 24.1953 27.9729 24.7298 27.9729 25.3897C27.9729 26.0493 28.5077 26.5842 29.1673 26.5842Z" fill="#EB6677" stroke="#EF798A" stroke-width="0.5"/>
<path d="M33.8878 26.5842H34.8324C35.492 26.5842 36.0269 26.0493 36.0269 25.3897C36.0269 24.7299 35.492 24.1953 34.8324 24.1953H33.8878C33.2283 24.1953 32.6934 24.7298 32.6934 25.3897C32.6934 26.0493 33.2282 26.5842 33.8878 26.5842Z" fill="#EB6677" stroke="#EF798A" stroke-width="0.5"/>
</svg>
